{
    "asset" : {
        "generator" : "Khronos glTF Blender I/O v1.4.40",
        "version" : "2.0"
    },
    "scene" : 0,
    "scenes" : [
        {
            "name" : "Scene",
            "nodes" : [
                0
            ]
        }
    ],
    "nodes" : [
        {
            "mesh" : 0,
            "name" : "Cylinder",
            "rotation" : [
                -0.7071068286895752,
                0,
                0,
                0.7071068286895752
            ]
        }
    ],
    "meshes" : [
        {
            "name" : "Cylinder",
            "primitives" : [
                {
                    "attributes" : {
                        "POSITION" : 0,
                        "NORMAL" : 1,
                        "TEXCOORD_0" : 2,
                        "COLOR_0" : 3
                    },
                    "indices" : 4
                },
                {
                    "attributes" : {
                        "POSITION" : 5,
                        "NORMAL" : 6,
                        "TEXCOORD_0" : 7,
                        "COLOR_0" : 8
                    },
                    "indices" : 9
                },
                {
                    "attributes" : {
                        "POSITION" : 10,
                        "NORMAL" : 11,
                        "TEXCOORD_0" : 12,
                        "COLOR_0" : 13
                    },
                    "indices" : 14
                },
                {
                    "attributes" : {
                        "POSITION" : 15,
                        "NORMAL" : 16,
                        "TEXCOORD_0" : 17,
                        "COLOR_0" : 18
                    },
                    "indices" : 19
                }
            ]
        }
    ],
    "accessors" : [
        {
            "bufferView" : 0,
            "componentType" : 5126,
            "count" : 419,
            "max" : [
                0.029513753950595856,
                0.07553716003894806,
                0.029513753950595856
            ],
            "min" : [
                -0.029513761401176453,
                -0.08385451138019562,
                -0.029513761401176453
            ],
            "type" : "VEC3"
        },
        {
            "bufferView" : 1,
            "componentType" : 5126,
            "count" : 419,
            "type" : "VEC3"
        },
        {
            "bufferView" : 2,
            "componentType" : 5126,
            "count" : 419,
            "type" : "VEC2"
        },
        {
            "bufferView" : 3,
            "componentType" : 5123,
            "count" : 419,
            "normalized" : true,
            "type" : "VEC4"
        },
        {
            "bufferView" : 4,
            "componentType" : 5123,
            "count" : 1224,
            "type" : "SCALAR"
        },
        {
            "bufferView" : 5,
            "componentType" : 5126,
            "count" : 172,
            "max" : [
                0.025894781574606895,
                -0.025531316176056862,
                0.025894779711961746
            ],
            "min" : [
                -0.025894789025187492,
                -0.08759788423776627,
                -0.025894789025187492
            ],
            "type" : "VEC3"
        },
        {
            "bufferView" : 6,
            "componentType" : 5126,
            "count" : 172,
            "type" : "VEC3"
        },
        {
            "bufferView" : 7,
            "componentType" : 5126,
            "count" : 172,
            "type" : "VEC2"
        },
        {
            "bufferView" : 8,
            "componentType" : 5123,
            "count" : 172,
            "normalized" : true,
            "type" : "VEC4"
        },
        {
            "bufferView" : 9,
            "componentType" : 5123,
            "count" : 720,
            "type" : "SCALAR"
        },
        {
            "bufferView" : 10,
            "componentType" : 5126,
            "count" : 75,
            "max" : [
                0.0039634401910007,
                -0.027400009334087372,
                0.019534708932042122
            ],
            "min" : [
                -0.0039634401910007,
                -0.035326890647411346,
                0.015219077467918396
            ],
            "type" : "VEC3"
        },
        {
            "bufferView" : 11,
            "componentType" : 5126,
            "count" : 75,
            "type" : "VEC3"
        },
        {
            "bufferView" : 12,
            "componentType" : 5126,
            "count" : 75,
            "type" : "VEC2"
        },
        {
            "bufferView" : 13,
            "componentType" : 5123,
            "count" : 75,
            "normalized" : true,
            "type" : "VEC4"
        },
        {
            "bufferView" : 14,
            "componentType" : 5123,
            "count" : 216,
            "type" : "SCALAR"
        },
        {
            "bufferView" : 15,
            "componentType" : 5126,
            "count" : 250,
            "max" : [
                0.014620588161051273,
                0.07115904986858368,
                0.014620590955018997
            ],
            "min" : [
                -0.014620588161051273,
                -0.04601012170314789,
                -0.014620586298406124
            ],
            "type" : "VEC3"
        },
        {
            "bufferView" : 16,
            "componentType" : 5126,
            "count" : 250,
            "type" : "VEC3"
        },
        {
            "bufferView" : 17,
            "componentType" : 5126,
            "count" : 250,
            "type" : "VEC2"
        },
        {
            "bufferView" : 18,
            "componentType" : 5123,
            "count" : 250,
            "normalized" : true,
            "type" : "VEC4"
        },
        {
            "bufferView" : 19,
            "componentType" : 5123,
            "count" : 720,
            "type" : "SCALAR"
        }
    ],
    "bufferViews" : [
        {
            "buffer" : 0,
            "byteLength" : 5028,
            "byteOffset" : 0
        },
        {
            "buffer" : 0,
            "byteLength" : 5028,
            "byteOffset" : 5028
        },
        {
            "buffer" : 0,
            "byteLength" : 3352,
            "byteOffset" : 10056
        },
        {
            "buffer" : 0,
            "byteLength" : 3352,
            "byteOffset" : 13408
        },
        {
            "buffer" : 0,
            "byteLength" : 2448,
            "byteOffset" : 16760
        },
        {
            "buffer" : 0,
            "byteLength" : 2064,
            "byteOffset" : 19208
        },
        {
            "buffer" : 0,
            "byteLength" : 2064,
            "byteOffset" : 21272
        },
        {
            "buffer" : 0,
            "byteLength" : 1376,
            "byteOffset" : 23336
        },
        {
            "buffer" : 0,
            "byteLength" : 1376,
            "byteOffset" : 24712
        },
        {
            "buffer" : 0,
            "byteLength" : 1440,
            "byteOffset" : 26088
        },
        {
            "buffer" : 0,
            "byteLength" : 900,
            "byteOffset" : 27528
        },
        {
            "buffer" : 0,
            "byteLength" : 900,
            "byteOffset" : 28428
        },
        {
            "buffer" : 0,
            "byteLength" : 600,
            "byteOffset" : 29328
        },
        {
            "buffer" : 0,
            "byteLength" : 600,
            "byteOffset" : 29928
        },
        {
            "buffer" : 0,
            "byteLength" : 432,
            "byteOffset" : 30528
        },
        {
            "buffer" : 0,
            "byteLength" : 3000,
            "byteOffset" : 30960
        },
        {
            "buffer" : 0,
            "byteLength" : 3000,
            "byteOffset" : 33960
        },
        {
            "buffer" : 0,
            "byteLength" : 2000,
            "byteOffset" : 36960
        },
        {
            "buffer" : 0,
            "byteLength" : 2000,
            "byteOffset" : 38960
        },
        {
            "buffer" : 0,
            "byteLength" : 1440,
            "byteOffset" : 40960
        }
    ],
    "buffers" : [
        {
            "byteLength" : 42400,
            "uri" : "data:application/octet-stream;base64,"
        }
    ]
}
