{
    "asset" : {
        "generator" : "Khronos glTF Blender I/O v1.4.40",
        "version" : "2.0"
    },
    "scene" : 0,
    "scenes" : [
        {
            "name" : "Scene",
            "nodes" : [
                0
            ]
        }
    ],
    "nodes" : [
        {
            "mesh" : 0,
            "name" : "button"
        }
    ],
    "meshes" : [
        {
            "name" : "Cube.006",
            "primitives" : [
                {
                    "attributes" : {
                        "POSITION" : 0,
                        "NORMAL" : 1,
                        "TEXCOORD_0" : 2
                    },
                    "indices" : 3
                },
                {
                    "attributes" : {
                        "POSITION" : 4,
                        "NORMAL" : 5,
                        "TEXCOORD_0" : 6
                    },
                    "indices" : 7
                }
            ]
        }
    ],
    "accessors" : [
        {
            "bufferView" : 0,
            "componentType" : 5126,
            "count" : 34,
            "max" : [
                0.07708740234375,
                0.07493103295564651,
                0.04193999990820885
            ],
            "min" : [
                -0.07708740234375,
                -0.07493115216493607,
                -0.04193999990820885
            ],
            "type" : "VEC3"
        },
        {
            "bufferView" : 1,
            "componentType" : 5126,
            "count" : 34,
            "type" : "VEC3"
        },
        {
            "bufferView" : 2,
            "componentType" : 5126,
            "count" : 34,
            "type" : "VEC2"
        },
        {
            "bufferView" : 3,
            "componentType" : 5123,
            "count" : 48,
            "type" : "SCALAR"
        },
        {
            "bufferView" : 4,
            "componentType" : 5126,
            "count" : 60,
            "max" : [
                0.09476787596940994,
                0.0382227823138237,
                0.021775562316179276
            ],
            "min" : [
                0.04345767945051193,
                -0.03806780278682709,
                -0.02227228507399559
            ],
            "type" : "VEC3"
        },
        {
            "bufferView" : 5,
            "componentType" : 5126,
            "count" : 60,
            "type" : "VEC3"
        },
        {
            "bufferView" : 6,
            "componentType" : 5126,
            "count" : 60,
            "type" : "VEC2"
        },
        {
            "bufferView" : 7,
            "componentType" : 5123,
            "count" : 84,
            "type" : "SCALAR"
        }
    ],
    "bufferViews" : [
        {
            "buffer" : 0,
            "byteLength" : 408,
            "byteOffset" : 0
        },
        {
            "buffer" : 0,
            "byteLength" : 408,
            "byteOffset" : 408
        },
        {
            "buffer" : 0,
            "byteLength" : 272,
            "byteOffset" : 816
        },
        {
            "buffer" : 0,
            "byteLength" : 96,
            "byteOffset" : 1088
        },
        {
            "buffer" : 0,
            "byteLength" : 720,
            "byteOffset" : 1184
        },
        {
            "buffer" : 0,
            "byteLength" : 720,
            "byteOffset" : 1904
        },
        {
            "buffer" : 0,
            "byteLength" : 480,
            "byteOffset" : 2624
        },
        {
            "buffer" : 0,
            "byteLength" : 168,
            "byteOffset" : 3104
        }
    ],
    "buffers" : [
        {
            "byteLength" : 3272,
            "uri" : "data:application/octet-stream;base64,"
        }
    ]
}
