{
    "asset" : {
        "generator" : "Khronos glTF Blender I/O v1.4.40",
        "version" : "2.0"
    },
    "scene" : 0,
    "scenes" : [
        {
            "name" : "Scene",
            "nodes" : [
                3
            ]
        }
    ],
    "nodes" : [
        {
            "mesh" : 0,
            "name" : "handle",
            "rotation" : [
                0.7071068286895752,
                0,
                0,
                0.7071068286895752
            ],
            "translation" : [
                0,
                0.008569173514842987,
                0.02251751348376274
            ]
        },
        {
            "mesh" : 1,
            "name" : "screw",
            "translation" : [
                0,
                0.008523713797330856,
                0.06459295749664307
            ]
        },
        {
            "mesh" : 1,
            "name" : "screw.001",
            "translation" : [
                0,
                0.008523719385266304,
                -0.06264820694923401
            ]
        },
        {
            "children" : [
                0,
                1,
                2
            ],
            "mesh" : 2,
            "name" : "door_handle",
            "rotation" : [
                -0.7071068286895752,
                0,
                0,
                0.7071068286895752
            ]
        }
    ],
    "meshes" : [
        {
            "name" : "Circle.001",
            "primitives" : [
                {
                    "attributes" : {
                        "POSITION" : 0,
                        "NORMAL" : 1,
                        "TEXCOORD_0" : 2
                    },
                    "indices" : 3
                }
            ]
        },
        {
            "name" : "Circle",
            "primitives" : [
                {
                    "attributes" : {
                        "POSITION" : 4,
                        "NORMAL" : 5,
                        "TEXCOORD_0" : 6
                    },
                    "indices" : 7
                }
            ]
        },
        {
            "name" : "Plane",
            "primitives" : [
                {
                    "attributes" : {
                        "POSITION" : 8,
                        "NORMAL" : 9,
                        "TEXCOORD_0" : 10
                    },
                    "indices" : 11
                }
            ]
        }
    ],
    "accessors" : [
        {
            "bufferView" : 0,
            "componentType" : 5126,
            "count" : 223,
            "max" : [
                0.08325302600860596,
                0.010138780809938908,
                1.1285505863156686e-10
            ],
            "min" : [
                -0.01024224329739809,
                -0.010138780809938908,
                -0.052482880651950836
            ],
            "type" : "VEC3"
        },
        {
            "bufferView" : 1,
            "componentType" : 5126,
            "count" : 223,
            "type" : "VEC3"
        },
        {
            "bufferView" : 2,
            "componentType" : 5126,
            "count" : 223,
            "type" : "VEC2"
        },
        {
            "bufferView" : 3,
            "componentType" : 5123,
            "count" : 1104,
            "type" : "SCALAR"
        },
        {
            "bufferView" : 4,
            "componentType" : 5126,
            "count" : 65,
            "max" : [
                0.003999959211796522,
                0.0013000678736716509,
                0.0039999596774578094
            ],
            "min" : [
                -0.003999960143119097,
                9.313225746154785e-10,
                -0.0039999596774578094
            ],
            "type" : "VEC3"
        },
        {
            "bufferView" : 5,
            "componentType" : 5126,
            "count" : 65,
            "type" : "VEC3"
        },
        {
            "bufferView" : 6,
            "componentType" : 5126,
            "count" : 65,
            "type" : "VEC2"
        },
        {
            "bufferView" : 7,
            "componentType" : 5123,
            "count" : 336,
            "type" : "SCALAR"
        },
        {
            "bufferView" : 8,
            "componentType" : 5126,
            "count" : 224,
            "max" : [
                0.026634519919753075,
                0.00856918003410101,
                0.0827617347240448
            ],
            "min" : [
                -0.026634519919753075,
                -0.0032413708977401257,
                -0.0827617347240448
            ],
            "type" : "VEC3"
        },
        {
            "bufferView" : 9,
            "componentType" : 5126,
            "count" : 224,
            "type" : "VEC3"
        },
        {
            "bufferView" : 10,
            "componentType" : 5126,
            "count" : 224,
            "type" : "VEC2"
        },
        {
            "bufferView" : 11,
            "componentType" : 5123,
            "count" : 912,
            "type" : "SCALAR"
        }
    ],
    "bufferViews" : [
        {
            "buffer" : 0,
            "byteLength" : 2676,
            "byteOffset" : 0
        },
        {
            "buffer" : 0,
            "byteLength" : 2676,
            "byteOffset" : 2676
        },
        {
            "buffer" : 0,
            "byteLength" : 1784,
            "byteOffset" : 5352
        },
        {
            "buffer" : 0,
            "byteLength" : 2208,
            "byteOffset" : 7136
        },
        {
            "buffer" : 0,
            "byteLength" : 780,
            "byteOffset" : 9344
        },
        {
            "buffer" : 0,
            "byteLength" : 780,
            "byteOffset" : 10124
        },
        {
            "buffer" : 0,
            "byteLength" : 520,
            "byteOffset" : 10904
        },
        {
            "buffer" : 0,
            "byteLength" : 672,
            "byteOffset" : 11424
        },
        {
            "buffer" : 0,
            "byteLength" : 2688,
            "byteOffset" : 12096
        },
        {
            "buffer" : 0,
            "byteLength" : 2688,
            "byteOffset" : 14784
        },
        {
            "buffer" : 0,
            "byteLength" : 1792,
            "byteOffset" : 17472
        },
        {
            "buffer" : 0,
            "byteLength" : 1824,
            "byteOffset" : 19264
        }
    ],
    "buffers" : [
        {
            "byteLength" : 21088,
            "uri" : "data:application/octet-stream;base64,"
        }
    ]
}
